<mxfile host="app.diagrams.net" modified="2023-11-12T11:30:00.001Z" agent="Mozilla/5.0 (Windows NT 10.0; Win64; x64) AppleWebKit/537.36 (KHTML, like Gecko) Chrome/118.0.0.0 Safari/537.36" etag="G3nzPKAejUXSTPUEeKFl" version="22.1.0" type="github" pages="2">
  <diagram id="xWQ4Zyft0Hbb_Zi7MO_B" name="第 1 页">
    <mxGraphModel dx="2262" dy="891" grid="1" gridSize="10" guides="1" tooltips="1" connect="1" arrows="1" fold="1" page="1" pageScale="1" pageWidth="850" pageHeight="1100" math="0" shadow="0">
      <root>
        <mxCell id="0" />
        <mxCell id="1" parent="0" />
        <mxCell id="P8PzaqtZQXt_AduyxzbV-3" value="" style="edgeStyle=orthogonalEdgeStyle;rounded=0;orthogonalLoop=1;jettySize=auto;html=1;exitX=0;exitY=0.25;exitDx=0;exitDy=0;entryX=1;entryY=0.25;entryDx=0;entryDy=0;" parent="1" source="P8PzaqtZQXt_AduyxzbV-1" target="P8PzaqtZQXt_AduyxzbV-2" edge="1">
          <mxGeometry relative="1" as="geometry" />
        </mxCell>
        <mxCell id="P8PzaqtZQXt_AduyxzbV-4" value="Number Plate" style="edgeLabel;html=1;align=center;verticalAlign=middle;resizable=0;points=[];" parent="P8PzaqtZQXt_AduyxzbV-3" vertex="1" connectable="0">
          <mxGeometry x="-0.2308" relative="1" as="geometry">
            <mxPoint x="-22" as="offset" />
          </mxGeometry>
        </mxCell>
        <mxCell id="P8PzaqtZQXt_AduyxzbV-8" value="" style="edgeStyle=orthogonalEdgeStyle;rounded=0;orthogonalLoop=1;jettySize=auto;html=1;" parent="1" source="P8PzaqtZQXt_AduyxzbV-1" target="P8PzaqtZQXt_AduyxzbV-7" edge="1">
          <mxGeometry relative="1" as="geometry" />
        </mxCell>
        <mxCell id="P8PzaqtZQXt_AduyxzbV-9" value="Compares Pictures" style="edgeLabel;html=1;align=center;verticalAlign=middle;resizable=0;points=[];" parent="P8PzaqtZQXt_AduyxzbV-8" vertex="1" connectable="0">
          <mxGeometry x="-0.2" y="-1" relative="1" as="geometry">
            <mxPoint as="offset" />
          </mxGeometry>
        </mxCell>
        <mxCell id="P8PzaqtZQXt_AduyxzbV-1" value="Diamond" style="rounded=1;whiteSpace=wrap;html=1;" parent="1" vertex="1">
          <mxGeometry x="460" y="80" width="120" height="60" as="geometry" />
        </mxCell>
        <mxCell id="P8PzaqtZQXt_AduyxzbV-5" style="edgeStyle=orthogonalEdgeStyle;rounded=0;orthogonalLoop=1;jettySize=auto;html=1;entryX=0;entryY=0.75;entryDx=0;entryDy=0;exitX=1;exitY=0.75;exitDx=0;exitDy=0;" parent="1" source="P8PzaqtZQXt_AduyxzbV-2" target="P8PzaqtZQXt_AduyxzbV-1" edge="1">
          <mxGeometry relative="1" as="geometry" />
        </mxCell>
        <mxCell id="P8PzaqtZQXt_AduyxzbV-6" value="Owner Name&lt;br&gt;Owner Photo&lt;br&gt;Owner Address&lt;br&gt;Contact Information" style="edgeLabel;html=1;align=center;verticalAlign=middle;resizable=0;points=[];" parent="P8PzaqtZQXt_AduyxzbV-5" vertex="1" connectable="0">
          <mxGeometry x="-0.2615" relative="1" as="geometry">
            <mxPoint x="34" y="15" as="offset" />
          </mxGeometry>
        </mxCell>
        <mxCell id="P8PzaqtZQXt_AduyxzbV-2" value="DVLA" style="rounded=1;whiteSpace=wrap;html=1;" parent="1" vertex="1">
          <mxGeometry x="80" y="80" width="120" height="60" as="geometry" />
        </mxCell>
        <mxCell id="P8PzaqtZQXt_AduyxzbV-12" value="" style="edgeStyle=orthogonalEdgeStyle;rounded=0;orthogonalLoop=1;jettySize=auto;html=1;" parent="1" source="P8PzaqtZQXt_AduyxzbV-7" target="P8PzaqtZQXt_AduyxzbV-11" edge="1">
          <mxGeometry relative="1" as="geometry" />
        </mxCell>
        <mxCell id="P8PzaqtZQXt_AduyxzbV-13" value="Pictures Match" style="edgeLabel;html=1;align=center;verticalAlign=middle;resizable=0;points=[];" parent="P8PzaqtZQXt_AduyxzbV-12" vertex="1" connectable="0">
          <mxGeometry x="-0.2828" relative="1" as="geometry">
            <mxPoint x="13" as="offset" />
          </mxGeometry>
        </mxCell>
        <mxCell id="P8PzaqtZQXt_AduyxzbV-15" value="" style="edgeStyle=orthogonalEdgeStyle;rounded=0;orthogonalLoop=1;jettySize=auto;html=1;" parent="1" source="P8PzaqtZQXt_AduyxzbV-7" target="P8PzaqtZQXt_AduyxzbV-14" edge="1">
          <mxGeometry relative="1" as="geometry" />
        </mxCell>
        <mxCell id="P8PzaqtZQXt_AduyxzbV-16" value="Picture Does Not Match (&amp;lt;10 Year)" style="edgeLabel;html=1;align=center;verticalAlign=middle;resizable=0;points=[];" parent="P8PzaqtZQXt_AduyxzbV-15" vertex="1" connectable="0">
          <mxGeometry x="-0.1111" relative="1" as="geometry">
            <mxPoint as="offset" />
          </mxGeometry>
        </mxCell>
        <mxCell id="P8PzaqtZQXt_AduyxzbV-29" value="Picture Does Not Match (&amp;gt;10 Years)&lt;br&gt;Send Owner Name" style="edgeStyle=orthogonalEdgeStyle;rounded=0;orthogonalLoop=1;jettySize=auto;html=1;entryX=1;entryY=0.5;entryDx=0;entryDy=0;" parent="1" source="P8PzaqtZQXt_AduyxzbV-7" target="P8PzaqtZQXt_AduyxzbV-28" edge="1">
          <mxGeometry relative="1" as="geometry" />
        </mxCell>
        <mxCell id="P8PzaqtZQXt_AduyxzbV-7" value="" style="rhombus;whiteSpace=wrap;html=1;rounded=1;" parent="1" vertex="1">
          <mxGeometry x="480" y="210" width="80" height="80" as="geometry" />
        </mxCell>
        <mxCell id="P8PzaqtZQXt_AduyxzbV-11" value="Send ticket to car owner" style="whiteSpace=wrap;html=1;rounded=1;fillColor=#dae8fc;strokeColor=#6c8ebf;" parent="1" vertex="1">
          <mxGeometry x="705" y="220" width="120" height="60" as="geometry" />
        </mxCell>
        <mxCell id="P8PzaqtZQXt_AduyxzbV-44" value="" style="edgeStyle=orthogonalEdgeStyle;rounded=0;orthogonalLoop=1;jettySize=auto;html=1;" parent="1" source="P8PzaqtZQXt_AduyxzbV-14" target="P8PzaqtZQXt_AduyxzbV-43" edge="1">
          <mxGeometry relative="1" as="geometry" />
        </mxCell>
        <mxCell id="P8PzaqtZQXt_AduyxzbV-45" value="Send all Pictures (100 million picture)" style="edgeLabel;html=1;align=center;verticalAlign=middle;resizable=0;points=[];" parent="P8PzaqtZQXt_AduyxzbV-44" vertex="1" connectable="0">
          <mxGeometry x="-0.125" y="2" relative="1" as="geometry">
            <mxPoint as="offset" />
          </mxGeometry>
        </mxCell>
        <mxCell id="P8PzaqtZQXt_AduyxzbV-14" value="Identity and Passport Service" style="whiteSpace=wrap;html=1;rounded=1;" parent="1" vertex="1">
          <mxGeometry x="460" y="380" width="120" height="60" as="geometry" />
        </mxCell>
        <mxCell id="P8PzaqtZQXt_AduyxzbV-34" value="" style="edgeStyle=orthogonalEdgeStyle;rounded=0;orthogonalLoop=1;jettySize=auto;html=1;" parent="1" source="P8PzaqtZQXt_AduyxzbV-28" target="P8PzaqtZQXt_AduyxzbV-33" edge="1">
          <mxGeometry relative="1" as="geometry" />
        </mxCell>
        <mxCell id="P8PzaqtZQXt_AduyxzbV-35" value="Send Car Owner Picture" style="edgeLabel;html=1;align=center;verticalAlign=middle;resizable=0;points=[];" parent="P8PzaqtZQXt_AduyxzbV-34" vertex="1" connectable="0">
          <mxGeometry x="-0.075" relative="1" as="geometry">
            <mxPoint as="offset" />
          </mxGeometry>
        </mxCell>
        <mxCell id="P8PzaqtZQXt_AduyxzbV-28" value="Identity and Passport Service" style="whiteSpace=wrap;html=1;rounded=1;" parent="1" vertex="1">
          <mxGeometry x="30" y="220" width="120" height="60" as="geometry" />
        </mxCell>
        <mxCell id="P8PzaqtZQXt_AduyxzbV-37" value="" style="edgeStyle=orthogonalEdgeStyle;rounded=0;orthogonalLoop=1;jettySize=auto;html=1;" parent="1" source="P8PzaqtZQXt_AduyxzbV-33" target="P8PzaqtZQXt_AduyxzbV-36" edge="1">
          <mxGeometry relative="1" as="geometry" />
        </mxCell>
        <mxCell id="P8PzaqtZQXt_AduyxzbV-33" value="Diamond" style="whiteSpace=wrap;html=1;rounded=1;" parent="1" vertex="1">
          <mxGeometry x="30" y="380" width="120" height="60" as="geometry" />
        </mxCell>
        <mxCell id="P8PzaqtZQXt_AduyxzbV-39" value="Picture Matches" style="edgeStyle=orthogonalEdgeStyle;rounded=0;orthogonalLoop=1;jettySize=auto;html=1;" parent="1" source="P8PzaqtZQXt_AduyxzbV-36" target="P8PzaqtZQXt_AduyxzbV-38" edge="1">
          <mxGeometry x="-0.0909" relative="1" as="geometry">
            <mxPoint as="offset" />
          </mxGeometry>
        </mxCell>
        <mxCell id="P8PzaqtZQXt_AduyxzbV-41" value="" style="edgeStyle=orthogonalEdgeStyle;rounded=0;orthogonalLoop=1;jettySize=auto;html=1;" parent="1" source="P8PzaqtZQXt_AduyxzbV-36" edge="1">
          <mxGeometry relative="1" as="geometry">
            <mxPoint x="90" y="680" as="targetPoint" />
          </mxGeometry>
        </mxCell>
        <mxCell id="P8PzaqtZQXt_AduyxzbV-42" value="Picture Does Not Match (&amp;lt;10 Year)" style="edgeLabel;html=1;align=center;verticalAlign=middle;resizable=0;points=[];" parent="P8PzaqtZQXt_AduyxzbV-41" vertex="1" connectable="0">
          <mxGeometry x="-0.1333" y="2" relative="1" as="geometry">
            <mxPoint as="offset" />
          </mxGeometry>
        </mxCell>
        <mxCell id="P8PzaqtZQXt_AduyxzbV-47" value="" style="edgeStyle=orthogonalEdgeStyle;rounded=0;orthogonalLoop=1;jettySize=auto;html=1;" parent="1" source="P8PzaqtZQXt_AduyxzbV-36" target="P8PzaqtZQXt_AduyxzbV-46" edge="1">
          <mxGeometry relative="1" as="geometry" />
        </mxCell>
        <mxCell id="P8PzaqtZQXt_AduyxzbV-48" value="Picture Does Not Match (&amp;gt;10 Years)" style="edgeLabel;html=1;align=center;verticalAlign=middle;resizable=0;points=[];" parent="P8PzaqtZQXt_AduyxzbV-47" vertex="1" connectable="0">
          <mxGeometry x="-0.0778" y="-4" relative="1" as="geometry">
            <mxPoint x="-9" y="4" as="offset" />
          </mxGeometry>
        </mxCell>
        <mxCell id="P8PzaqtZQXt_AduyxzbV-36" value="" style="rhombus;whiteSpace=wrap;html=1;rounded=1;" parent="1" vertex="1">
          <mxGeometry x="50" y="510" width="80" height="80" as="geometry" />
        </mxCell>
        <mxCell id="P8PzaqtZQXt_AduyxzbV-38" value="Send ticket to car owner" style="whiteSpace=wrap;html=1;rounded=1;fillColor=#dae8fc;strokeColor=#6c8ebf;" parent="1" vertex="1">
          <mxGeometry x="240" y="520" width="120" height="60" as="geometry" />
        </mxCell>
        <mxCell id="P8PzaqtZQXt_AduyxzbV-43" value="Diamond" style="whiteSpace=wrap;html=1;rounded=1;" parent="1" vertex="1">
          <mxGeometry x="460" y="520" width="120" height="60" as="geometry" />
        </mxCell>
        <mxCell id="P8PzaqtZQXt_AduyxzbV-54" value="" style="edgeStyle=orthogonalEdgeStyle;rounded=0;orthogonalLoop=1;jettySize=auto;html=1;" parent="1" source="P8PzaqtZQXt_AduyxzbV-46" target="P8PzaqtZQXt_AduyxzbV-53" edge="1">
          <mxGeometry relative="1" as="geometry" />
        </mxCell>
        <mxCell id="P8PzaqtZQXt_AduyxzbV-46" value="DMNLBIT" style="whiteSpace=wrap;html=1;rounded=1;" parent="1" vertex="1">
          <mxGeometry x="-290" y="520" width="120" height="60" as="geometry" />
        </mxCell>
        <mxCell id="P8PzaqtZQXt_AduyxzbV-56" value="Picture Matches" style="edgeStyle=orthogonalEdgeStyle;rounded=0;orthogonalLoop=1;jettySize=auto;html=1;" parent="1" source="P8PzaqtZQXt_AduyxzbV-53" target="P8PzaqtZQXt_AduyxzbV-55" edge="1">
          <mxGeometry relative="1" as="geometry" />
        </mxCell>
        <mxCell id="P8PzaqtZQXt_AduyxzbV-58" value="" style="edgeStyle=orthogonalEdgeStyle;rounded=0;orthogonalLoop=1;jettySize=auto;html=1;" parent="1" source="P8PzaqtZQXt_AduyxzbV-53" target="P8PzaqtZQXt_AduyxzbV-57" edge="1">
          <mxGeometry relative="1" as="geometry" />
        </mxCell>
        <mxCell id="P8PzaqtZQXt_AduyxzbV-60" value="Picture Does Not Match (&amp;lt;10 Year)" style="edgeLabel;html=1;align=center;verticalAlign=middle;resizable=0;points=[];" parent="P8PzaqtZQXt_AduyxzbV-58" vertex="1" connectable="0">
          <mxGeometry x="-0.1556" relative="1" as="geometry">
            <mxPoint as="offset" />
          </mxGeometry>
        </mxCell>
        <mxCell id="P8PzaqtZQXt_AduyxzbV-63" value="" style="edgeStyle=orthogonalEdgeStyle;rounded=0;orthogonalLoop=1;jettySize=auto;html=1;" parent="1" source="P8PzaqtZQXt_AduyxzbV-53" target="P8PzaqtZQXt_AduyxzbV-62" edge="1">
          <mxGeometry relative="1" as="geometry" />
        </mxCell>
        <mxCell id="P8PzaqtZQXt_AduyxzbV-64" value="Picture Does Not Match (&amp;gt;10 Years)" style="edgeLabel;html=1;align=center;verticalAlign=middle;resizable=0;points=[];" parent="P8PzaqtZQXt_AduyxzbV-63" vertex="1" connectable="0">
          <mxGeometry x="-0.1" y="1" relative="1" as="geometry">
            <mxPoint as="offset" />
          </mxGeometry>
        </mxCell>
        <mxCell id="P8PzaqtZQXt_AduyxzbV-53" value="" style="rhombus;whiteSpace=wrap;html=1;rounded=1;" parent="1" vertex="1">
          <mxGeometry x="-270" y="700" width="80" height="80" as="geometry" />
        </mxCell>
        <mxCell id="P8PzaqtZQXt_AduyxzbV-55" value="Send ticket to car owner" style="whiteSpace=wrap;html=1;rounded=1;fillColor=#dae8fc;strokeColor=#6c8ebf;" parent="1" vertex="1">
          <mxGeometry x="-70" y="710" width="120" height="60" as="geometry" />
        </mxCell>
        <mxCell id="P8PzaqtZQXt_AduyxzbV-70" style="edgeStyle=orthogonalEdgeStyle;rounded=0;orthogonalLoop=1;jettySize=auto;html=1;entryX=0;entryY=0.5;entryDx=0;entryDy=0;" parent="1" source="P8PzaqtZQXt_AduyxzbV-57" target="P8PzaqtZQXt_AduyxzbV-14" edge="1">
          <mxGeometry relative="1" as="geometry">
            <Array as="points">
              <mxPoint x="380" y="900" />
              <mxPoint x="380" y="410" />
            </Array>
          </mxGeometry>
        </mxCell>
        <mxCell id="P8PzaqtZQXt_AduyxzbV-57" value="&lt;i&gt;Not the same person&lt;/i&gt;" style="whiteSpace=wrap;html=1;rounded=1;" parent="1" vertex="1">
          <mxGeometry x="-290" y="870" width="120" height="60" as="geometry" />
        </mxCell>
        <mxCell id="P8PzaqtZQXt_AduyxzbV-62" value="Continue searching for other people, if no match, send ticket to car owner (Warning all photos too old)" style="whiteSpace=wrap;html=1;rounded=1;" parent="1" vertex="1">
          <mxGeometry x="-670" y="710" width="170" height="70" as="geometry" />
        </mxCell>
        <mxCell id="P8PzaqtZQXt_AduyxzbV-83" value="" style="edgeStyle=orthogonalEdgeStyle;rounded=0;orthogonalLoop=1;jettySize=auto;html=1;entryX=0.5;entryY=0;entryDx=0;entryDy=0;" parent="1" source="P8PzaqtZQXt_AduyxzbV-85" target="P8PzaqtZQXt_AduyxzbV-87" edge="1">
          <mxGeometry relative="1" as="geometry" />
        </mxCell>
        <mxCell id="P8PzaqtZQXt_AduyxzbV-84" value="Request all pictures" style="edgeLabel;html=1;align=center;verticalAlign=middle;resizable=0;points=[];" parent="P8PzaqtZQXt_AduyxzbV-83" vertex="1" connectable="0">
          <mxGeometry x="-0.08" y="-3" relative="1" as="geometry">
            <mxPoint y="-3" as="offset" />
          </mxGeometry>
        </mxCell>
        <mxCell id="P8PzaqtZQXt_AduyxzbV-85" value="Diamond" style="rounded=1;whiteSpace=wrap;html=1;" parent="1" vertex="1">
          <mxGeometry x="1470" y="190" width="120" height="60" as="geometry" />
        </mxCell>
        <mxCell id="P8PzaqtZQXt_AduyxzbV-86" value="" style="edgeStyle=orthogonalEdgeStyle;rounded=0;orthogonalLoop=1;jettySize=auto;html=1;entryX=0.5;entryY=0;entryDx=0;entryDy=0;" parent="1" source="P8PzaqtZQXt_AduyxzbV-87" target="P8PzaqtZQXt_AduyxzbV-89" edge="1">
          <mxGeometry relative="1" as="geometry" />
        </mxCell>
        <mxCell id="P8PzaqtZQXt_AduyxzbV-87" value="DVLA" style="rounded=1;whiteSpace=wrap;html=1;" parent="1" vertex="1">
          <mxGeometry x="1470" y="340" width="120" height="60" as="geometry" />
        </mxCell>
        <mxCell id="P8PzaqtZQXt_AduyxzbV-88" value="" style="edgeStyle=orthogonalEdgeStyle;rounded=0;orthogonalLoop=1;jettySize=auto;html=1;entryX=0.5;entryY=0;entryDx=0;entryDy=0;" parent="1" source="P8PzaqtZQXt_AduyxzbV-89" target="P8PzaqtZQXt_AduyxzbV-90" edge="1">
          <mxGeometry relative="1" as="geometry" />
        </mxCell>
        <mxCell id="P8PzaqtZQXt_AduyxzbV-89" value="Diamond" style="rounded=1;whiteSpace=wrap;html=1;" parent="1" vertex="1">
          <mxGeometry x="1470" y="470" width="120" height="60" as="geometry" />
        </mxCell>
        <mxCell id="P8PzaqtZQXt_AduyxzbV-91" style="edgeStyle=orthogonalEdgeStyle;rounded=0;orthogonalLoop=1;jettySize=auto;html=1;entryX=0;entryY=0.5;entryDx=0;entryDy=0;" parent="1" source="P8PzaqtZQXt_AduyxzbV-90" target="P8PzaqtZQXt_AduyxzbV-93" edge="1">
          <mxGeometry relative="1" as="geometry">
            <mxPoint x="1720" y="640" as="targetPoint" />
          </mxGeometry>
        </mxCell>
        <mxCell id="P8PzaqtZQXt_AduyxzbV-92" value="Match" style="edgeLabel;html=1;align=center;verticalAlign=middle;resizable=0;points=[];" parent="P8PzaqtZQXt_AduyxzbV-91" vertex="1" connectable="0">
          <mxGeometry x="-0.1307" y="-1" relative="1" as="geometry">
            <mxPoint as="offset" />
          </mxGeometry>
        </mxCell>
        <mxCell id="P8PzaqtZQXt_AduyxzbV-95" value="" style="edgeStyle=orthogonalEdgeStyle;rounded=0;orthogonalLoop=1;jettySize=auto;html=1;entryX=0.5;entryY=0;entryDx=0;entryDy=0;" parent="1" source="P8PzaqtZQXt_AduyxzbV-90" target="P8PzaqtZQXt_AduyxzbV-97" edge="1">
          <mxGeometry relative="1" as="geometry" />
        </mxCell>
        <mxCell id="P8PzaqtZQXt_AduyxzbV-96" value="No Match" style="edgeLabel;html=1;align=center;verticalAlign=middle;resizable=0;points=[];" parent="P8PzaqtZQXt_AduyxzbV-95" vertex="1" connectable="0">
          <mxGeometry x="-0.0889" y="3" relative="1" as="geometry">
            <mxPoint as="offset" />
          </mxGeometry>
        </mxCell>
        <mxCell id="P8PzaqtZQXt_AduyxzbV-90" value="" style="rhombus;whiteSpace=wrap;html=1;rounded=1;" parent="1" vertex="1">
          <mxGeometry x="1490" y="600" width="80" height="80" as="geometry" />
        </mxCell>
        <mxCell id="P8PzaqtZQXt_AduyxzbV-93" value="Done" style="rounded=1;whiteSpace=wrap;html=1;fillColor=#dae8fc;strokeColor=#6c8ebf;" parent="1" vertex="1">
          <mxGeometry x="1700" y="610" width="120" height="60" as="geometry" />
        </mxCell>
        <mxCell id="P8PzaqtZQXt_AduyxzbV-107" style="edgeStyle=orthogonalEdgeStyle;rounded=0;orthogonalLoop=1;jettySize=auto;html=1;entryX=0.5;entryY=0;entryDx=0;entryDy=0;" parent="1" source="P8PzaqtZQXt_AduyxzbV-94" target="P8PzaqtZQXt_AduyxzbV-104" edge="1">
          <mxGeometry relative="1" as="geometry" />
        </mxCell>
        <mxCell id="P8PzaqtZQXt_AduyxzbV-94" value="Identity and Passport Service" style="rounded=1;whiteSpace=wrap;html=1;" parent="1" vertex="1">
          <mxGeometry x="1470" y="910" width="120" height="60" as="geometry" />
        </mxCell>
        <mxCell id="P8PzaqtZQXt_AduyxzbV-98" style="edgeStyle=orthogonalEdgeStyle;rounded=0;orthogonalLoop=1;jettySize=auto;html=1;entryX=0.5;entryY=0;entryDx=0;entryDy=0;" parent="1" source="P8PzaqtZQXt_AduyxzbV-97" target="P8PzaqtZQXt_AduyxzbV-94" edge="1">
          <mxGeometry relative="1" as="geometry" />
        </mxCell>
        <mxCell id="P8PzaqtZQXt_AduyxzbV-99" value="Request all Pictures" style="edgeLabel;html=1;align=center;verticalAlign=middle;resizable=0;points=[];" parent="P8PzaqtZQXt_AduyxzbV-98" vertex="1" connectable="0">
          <mxGeometry x="0.0111" y="1" relative="1" as="geometry">
            <mxPoint as="offset" />
          </mxGeometry>
        </mxCell>
        <mxCell id="P8PzaqtZQXt_AduyxzbV-97" value="Diamond" style="rounded=1;whiteSpace=wrap;html=1;" parent="1" vertex="1">
          <mxGeometry x="1470" y="760" width="120" height="60" as="geometry" />
        </mxCell>
        <mxCell id="P8PzaqtZQXt_AduyxzbV-100" style="edgeStyle=orthogonalEdgeStyle;rounded=0;orthogonalLoop=1;jettySize=auto;html=1;entryX=0;entryY=0.5;entryDx=0;entryDy=0;" parent="1" source="P8PzaqtZQXt_AduyxzbV-104" target="P8PzaqtZQXt_AduyxzbV-105" edge="1">
          <mxGeometry relative="1" as="geometry">
            <mxPoint x="1720" y="1090" as="targetPoint" />
          </mxGeometry>
        </mxCell>
        <mxCell id="P8PzaqtZQXt_AduyxzbV-101" value="Match" style="edgeLabel;html=1;align=center;verticalAlign=middle;resizable=0;points=[];" parent="P8PzaqtZQXt_AduyxzbV-100" vertex="1" connectable="0">
          <mxGeometry x="-0.1307" y="-1" relative="1" as="geometry">
            <mxPoint as="offset" />
          </mxGeometry>
        </mxCell>
        <mxCell id="P8PzaqtZQXt_AduyxzbV-102" value="" style="edgeStyle=orthogonalEdgeStyle;rounded=0;orthogonalLoop=1;jettySize=auto;html=1;entryX=0.5;entryY=0;entryDx=0;entryDy=0;" parent="1" source="P8PzaqtZQXt_AduyxzbV-104" target="P8PzaqtZQXt_AduyxzbV-106" edge="1">
          <mxGeometry relative="1" as="geometry" />
        </mxCell>
        <mxCell id="P8PzaqtZQXt_AduyxzbV-103" value="No Match" style="edgeLabel;html=1;align=center;verticalAlign=middle;resizable=0;points=[];" parent="P8PzaqtZQXt_AduyxzbV-102" vertex="1" connectable="0">
          <mxGeometry x="-0.0889" y="3" relative="1" as="geometry">
            <mxPoint as="offset" />
          </mxGeometry>
        </mxCell>
        <mxCell id="P8PzaqtZQXt_AduyxzbV-104" value="" style="rhombus;whiteSpace=wrap;html=1;rounded=1;" parent="1" vertex="1">
          <mxGeometry x="1490" y="1050" width="80" height="80" as="geometry" />
        </mxCell>
        <mxCell id="P8PzaqtZQXt_AduyxzbV-105" value="Done" style="rounded=1;whiteSpace=wrap;html=1;fillColor=#dae8fc;strokeColor=#6c8ebf;" parent="1" vertex="1">
          <mxGeometry x="1700" y="1060" width="120" height="60" as="geometry" />
        </mxCell>
        <mxCell id="P8PzaqtZQXt_AduyxzbV-109" style="edgeStyle=orthogonalEdgeStyle;rounded=0;orthogonalLoop=1;jettySize=auto;html=1;entryX=0.5;entryY=0;entryDx=0;entryDy=0;" parent="1" source="P8PzaqtZQXt_AduyxzbV-106" target="P8PzaqtZQXt_AduyxzbV-108" edge="1">
          <mxGeometry relative="1" as="geometry" />
        </mxCell>
        <mxCell id="P8PzaqtZQXt_AduyxzbV-106" value="Diamond" style="rounded=1;whiteSpace=wrap;html=1;" parent="1" vertex="1">
          <mxGeometry x="1470" y="1210" width="120" height="60" as="geometry" />
        </mxCell>
        <mxCell id="P8PzaqtZQXt_AduyxzbV-130" style="edgeStyle=orthogonalEdgeStyle;rounded=0;orthogonalLoop=1;jettySize=auto;html=1;entryX=0.5;entryY=0;entryDx=0;entryDy=0;" parent="1" source="P8PzaqtZQXt_AduyxzbV-108" target="P8PzaqtZQXt_AduyxzbV-128" edge="1">
          <mxGeometry relative="1" as="geometry" />
        </mxCell>
        <mxCell id="P8PzaqtZQXt_AduyxzbV-108" value="Home Office" style="rounded=1;whiteSpace=wrap;html=1;" parent="1" vertex="1">
          <mxGeometry x="1470" y="1350" width="120" height="60" as="geometry" />
        </mxCell>
        <mxCell id="P8PzaqtZQXt_AduyxzbV-124" style="edgeStyle=orthogonalEdgeStyle;rounded=0;orthogonalLoop=1;jettySize=auto;html=1;entryX=0;entryY=0.5;entryDx=0;entryDy=0;" parent="1" source="P8PzaqtZQXt_AduyxzbV-128" target="P8PzaqtZQXt_AduyxzbV-129" edge="1">
          <mxGeometry relative="1" as="geometry">
            <mxPoint x="1720" y="1510" as="targetPoint" />
          </mxGeometry>
        </mxCell>
        <mxCell id="P8PzaqtZQXt_AduyxzbV-125" value="Match" style="edgeLabel;html=1;align=center;verticalAlign=middle;resizable=0;points=[];" parent="P8PzaqtZQXt_AduyxzbV-124" vertex="1" connectable="0">
          <mxGeometry x="-0.1307" y="-1" relative="1" as="geometry">
            <mxPoint as="offset" />
          </mxGeometry>
        </mxCell>
        <mxCell id="P8PzaqtZQXt_AduyxzbV-126" value="" style="edgeStyle=orthogonalEdgeStyle;rounded=0;orthogonalLoop=1;jettySize=auto;html=1;entryX=0.5;entryY=0;entryDx=0;entryDy=0;" parent="1" source="P8PzaqtZQXt_AduyxzbV-128" target="P8PzaqtZQXt_AduyxzbV-134" edge="1">
          <mxGeometry relative="1" as="geometry">
            <mxPoint x="1530" y="1630" as="targetPoint" />
          </mxGeometry>
        </mxCell>
        <mxCell id="P8PzaqtZQXt_AduyxzbV-127" value="No Match" style="edgeLabel;html=1;align=center;verticalAlign=middle;resizable=0;points=[];" parent="P8PzaqtZQXt_AduyxzbV-126" vertex="1" connectable="0">
          <mxGeometry x="-0.0889" y="3" relative="1" as="geometry">
            <mxPoint as="offset" />
          </mxGeometry>
        </mxCell>
        <mxCell id="P8PzaqtZQXt_AduyxzbV-128" value="" style="rhombus;whiteSpace=wrap;html=1;rounded=1;" parent="1" vertex="1">
          <mxGeometry x="1490" y="1470" width="80" height="80" as="geometry" />
        </mxCell>
        <mxCell id="P8PzaqtZQXt_AduyxzbV-129" value="Done" style="rounded=1;whiteSpace=wrap;html=1;fillColor=#dae8fc;strokeColor=#6c8ebf;" parent="1" vertex="1">
          <mxGeometry x="1700" y="1480" width="120" height="60" as="geometry" />
        </mxCell>
        <mxCell id="P8PzaqtZQXt_AduyxzbV-133" style="edgeStyle=orthogonalEdgeStyle;rounded=0;orthogonalLoop=1;jettySize=auto;html=1;entryX=0.5;entryY=0;entryDx=0;entryDy=0;" parent="1" source="P8PzaqtZQXt_AduyxzbV-134" target="P8PzaqtZQXt_AduyxzbV-136" edge="1">
          <mxGeometry relative="1" as="geometry" />
        </mxCell>
        <mxCell id="P8PzaqtZQXt_AduyxzbV-134" value="Diamond" style="rounded=1;whiteSpace=wrap;html=1;" parent="1" vertex="1">
          <mxGeometry x="1470" y="1620" width="120" height="60" as="geometry" />
        </mxCell>
        <mxCell id="P8PzaqtZQXt_AduyxzbV-135" style="edgeStyle=orthogonalEdgeStyle;rounded=0;orthogonalLoop=1;jettySize=auto;html=1;entryX=0.5;entryY=0;entryDx=0;entryDy=0;" parent="1" source="P8PzaqtZQXt_AduyxzbV-136" target="P8PzaqtZQXt_AduyxzbV-141" edge="1">
          <mxGeometry relative="1" as="geometry" />
        </mxCell>
        <mxCell id="P8PzaqtZQXt_AduyxzbV-136" value="DMNLBIT" style="rounded=1;whiteSpace=wrap;html=1;" parent="1" vertex="1">
          <mxGeometry x="1470" y="1760" width="120" height="60" as="geometry" />
        </mxCell>
        <mxCell id="P8PzaqtZQXt_AduyxzbV-137" style="edgeStyle=orthogonalEdgeStyle;rounded=0;orthogonalLoop=1;jettySize=auto;html=1;entryX=0;entryY=0.5;entryDx=0;entryDy=0;" parent="1" source="P8PzaqtZQXt_AduyxzbV-141" target="P8PzaqtZQXt_AduyxzbV-142" edge="1">
          <mxGeometry relative="1" as="geometry">
            <mxPoint x="1720" y="1920" as="targetPoint" />
          </mxGeometry>
        </mxCell>
        <mxCell id="P8PzaqtZQXt_AduyxzbV-138" value="Match" style="edgeLabel;html=1;align=center;verticalAlign=middle;resizable=0;points=[];" parent="P8PzaqtZQXt_AduyxzbV-137" vertex="1" connectable="0">
          <mxGeometry x="-0.1307" y="-1" relative="1" as="geometry">
            <mxPoint as="offset" />
          </mxGeometry>
        </mxCell>
        <mxCell id="P8PzaqtZQXt_AduyxzbV-139" value="" style="edgeStyle=orthogonalEdgeStyle;rounded=0;orthogonalLoop=1;jettySize=auto;html=1;entryX=0.5;entryY=0;entryDx=0;entryDy=0;" parent="1" source="P8PzaqtZQXt_AduyxzbV-141" target="P8PzaqtZQXt_AduyxzbV-143" edge="1">
          <mxGeometry relative="1" as="geometry">
            <mxPoint x="1530" y="2040" as="targetPoint" />
          </mxGeometry>
        </mxCell>
        <mxCell id="P8PzaqtZQXt_AduyxzbV-140" value="No Match" style="edgeLabel;html=1;align=center;verticalAlign=middle;resizable=0;points=[];" parent="P8PzaqtZQXt_AduyxzbV-139" vertex="1" connectable="0">
          <mxGeometry x="-0.0889" y="3" relative="1" as="geometry">
            <mxPoint as="offset" />
          </mxGeometry>
        </mxCell>
        <mxCell id="P8PzaqtZQXt_AduyxzbV-141" value="" style="rhombus;whiteSpace=wrap;html=1;rounded=1;" parent="1" vertex="1">
          <mxGeometry x="1490" y="1880" width="80" height="80" as="geometry" />
        </mxCell>
        <mxCell id="P8PzaqtZQXt_AduyxzbV-142" value="Done" style="rounded=1;whiteSpace=wrap;html=1;fillColor=#dae8fc;strokeColor=#6c8ebf;" parent="1" vertex="1">
          <mxGeometry x="1700" y="1890" width="120" height="60" as="geometry" />
        </mxCell>
        <mxCell id="P8PzaqtZQXt_AduyxzbV-148" value="" style="edgeStyle=orthogonalEdgeStyle;rounded=0;orthogonalLoop=1;jettySize=auto;html=1;" parent="1" source="P8PzaqtZQXt_AduyxzbV-143" target="P8PzaqtZQXt_AduyxzbV-147" edge="1">
          <mxGeometry relative="1" as="geometry" />
        </mxCell>
        <mxCell id="P8PzaqtZQXt_AduyxzbV-143" value="Send report to local authority" style="rounded=1;whiteSpace=wrap;html=1;" parent="1" vertex="1">
          <mxGeometry x="1470" y="2060" width="120" height="60" as="geometry" />
        </mxCell>
        <mxCell id="P8PzaqtZQXt_AduyxzbV-150" value="" style="edgeStyle=orthogonalEdgeStyle;rounded=0;orthogonalLoop=1;jettySize=auto;html=1;" parent="1" source="P8PzaqtZQXt_AduyxzbV-147" target="P8PzaqtZQXt_AduyxzbV-149" edge="1">
          <mxGeometry relative="1" as="geometry" />
        </mxCell>
        <mxCell id="P8PzaqtZQXt_AduyxzbV-147" value="ANPR System" style="rounded=1;whiteSpace=wrap;html=1;" parent="1" vertex="1">
          <mxGeometry x="1470" y="2180" width="120" height="60" as="geometry" />
        </mxCell>
        <mxCell id="P8PzaqtZQXt_AduyxzbV-149" value="Find Car" style="rounded=1;whiteSpace=wrap;html=1;" parent="1" vertex="1">
          <mxGeometry x="1470" y="2310" width="120" height="60" as="geometry" />
        </mxCell>
      </root>
    </mxGraphModel>
  </diagram>
  <diagram id="zOp9ZPrEwLmyn8yj29KZ" name="Mike">
    <mxGraphModel dx="585" dy="891" grid="1" gridSize="10" guides="1" tooltips="1" connect="1" arrows="1" fold="1" page="1" pageScale="1" pageWidth="827" pageHeight="1169" math="0" shadow="0">
      <root>
        <mxCell id="0" />
        <mxCell id="1" parent="0" />
        <mxCell id="20jElHbkQg8c8GI86TIi-1" value="" style="edgeStyle=orthogonalEdgeStyle;rounded=0;orthogonalLoop=1;jettySize=auto;html=1;entryX=0.5;entryY=0;entryDx=0;entryDy=0;" parent="1" source="20jElHbkQg8c8GI86TIi-3" target="20jElHbkQg8c8GI86TIi-5" edge="1">
          <mxGeometry relative="1" as="geometry" />
        </mxCell>
        <mxCell id="20jElHbkQg8c8GI86TIi-2" value="Request all pictures" style="edgeLabel;html=1;align=center;verticalAlign=middle;resizable=0;points=[];" parent="20jElHbkQg8c8GI86TIi-1" vertex="1" connectable="0">
          <mxGeometry x="-0.08" y="-3" relative="1" as="geometry">
            <mxPoint y="-3" as="offset" />
          </mxGeometry>
        </mxCell>
        <mxCell id="BSd8035IVTsq0BhdVK2I-2" style="edgeStyle=orthogonalEdgeStyle;rounded=0;orthogonalLoop=1;jettySize=auto;html=1;exitX=0;exitY=0.5;exitDx=0;exitDy=0;entryX=0.5;entryY=0;entryDx=0;entryDy=0;" edge="1" parent="1" source="20jElHbkQg8c8GI86TIi-3" target="BSd8035IVTsq0BhdVK2I-1">
          <mxGeometry relative="1" as="geometry">
            <Array as="points">
              <mxPoint x="1330" y="220" />
            </Array>
          </mxGeometry>
        </mxCell>
        <mxCell id="VzHSFZfsUgJm2BK-wIog-1" value="Number Plate" style="edgeLabel;html=1;align=center;verticalAlign=middle;resizable=0;points=[];" vertex="1" connectable="0" parent="BSd8035IVTsq0BhdVK2I-2">
          <mxGeometry x="0.4738" relative="1" as="geometry">
            <mxPoint as="offset" />
          </mxGeometry>
        </mxCell>
        <mxCell id="20jElHbkQg8c8GI86TIi-3" value="Diamond" style="rounded=1;whiteSpace=wrap;html=1;" parent="1" vertex="1">
          <mxGeometry x="1470" y="190" width="120" height="60" as="geometry" />
        </mxCell>
        <mxCell id="20jElHbkQg8c8GI86TIi-4" value="" style="edgeStyle=orthogonalEdgeStyle;rounded=0;orthogonalLoop=1;jettySize=auto;html=1;entryX=0.5;entryY=0;entryDx=0;entryDy=0;" parent="1" source="20jElHbkQg8c8GI86TIi-5" target="20jElHbkQg8c8GI86TIi-7" edge="1">
          <mxGeometry relative="1" as="geometry" />
        </mxCell>
        <mxCell id="20jElHbkQg8c8GI86TIi-5" value="DVLA" style="rounded=1;whiteSpace=wrap;html=1;" parent="1" vertex="1">
          <mxGeometry x="1470" y="340" width="120" height="60" as="geometry" />
        </mxCell>
        <mxCell id="20jElHbkQg8c8GI86TIi-6" value="" style="edgeStyle=orthogonalEdgeStyle;rounded=0;orthogonalLoop=1;jettySize=auto;html=1;entryX=0.5;entryY=0;entryDx=0;entryDy=0;" parent="1" source="20jElHbkQg8c8GI86TIi-7" target="20jElHbkQg8c8GI86TIi-12" edge="1">
          <mxGeometry relative="1" as="geometry" />
        </mxCell>
        <mxCell id="20jElHbkQg8c8GI86TIi-7" value="Diamond" style="rounded=1;whiteSpace=wrap;html=1;" parent="1" vertex="1">
          <mxGeometry x="1470" y="470" width="120" height="60" as="geometry" />
        </mxCell>
        <mxCell id="20jElHbkQg8c8GI86TIi-8" style="edgeStyle=orthogonalEdgeStyle;rounded=0;orthogonalLoop=1;jettySize=auto;html=1;entryX=0;entryY=0.5;entryDx=0;entryDy=0;" parent="1" source="20jElHbkQg8c8GI86TIi-12" target="20jElHbkQg8c8GI86TIi-13" edge="1">
          <mxGeometry relative="1" as="geometry">
            <mxPoint x="1720" y="640" as="targetPoint" />
          </mxGeometry>
        </mxCell>
        <mxCell id="20jElHbkQg8c8GI86TIi-9" value="Match" style="edgeLabel;html=1;align=center;verticalAlign=middle;resizable=0;points=[];" parent="20jElHbkQg8c8GI86TIi-8" vertex="1" connectable="0">
          <mxGeometry x="-0.1307" y="-1" relative="1" as="geometry">
            <mxPoint as="offset" />
          </mxGeometry>
        </mxCell>
        <mxCell id="20jElHbkQg8c8GI86TIi-10" value="" style="edgeStyle=orthogonalEdgeStyle;rounded=0;orthogonalLoop=1;jettySize=auto;html=1;entryX=0.5;entryY=0;entryDx=0;entryDy=0;" parent="1" source="20jElHbkQg8c8GI86TIi-12" target="20jElHbkQg8c8GI86TIi-18" edge="1">
          <mxGeometry relative="1" as="geometry" />
        </mxCell>
        <mxCell id="20jElHbkQg8c8GI86TIi-11" value="No Match" style="edgeLabel;html=1;align=center;verticalAlign=middle;resizable=0;points=[];" parent="20jElHbkQg8c8GI86TIi-10" vertex="1" connectable="0">
          <mxGeometry x="-0.0889" y="3" relative="1" as="geometry">
            <mxPoint as="offset" />
          </mxGeometry>
        </mxCell>
        <mxCell id="20jElHbkQg8c8GI86TIi-12" value="" style="rhombus;whiteSpace=wrap;html=1;rounded=1;" parent="1" vertex="1">
          <mxGeometry x="1490" y="600" width="80" height="80" as="geometry" />
        </mxCell>
        <mxCell id="20jElHbkQg8c8GI86TIi-13" value="Done" style="rounded=1;whiteSpace=wrap;html=1;fillColor=#dae8fc;strokeColor=#6c8ebf;" parent="1" vertex="1">
          <mxGeometry x="1700" y="610" width="120" height="60" as="geometry" />
        </mxCell>
        <mxCell id="20jElHbkQg8c8GI86TIi-14" style="edgeStyle=orthogonalEdgeStyle;rounded=0;orthogonalLoop=1;jettySize=auto;html=1;entryX=0.5;entryY=0;entryDx=0;entryDy=0;" parent="1" source="20jElHbkQg8c8GI86TIi-15" target="20jElHbkQg8c8GI86TIi-23" edge="1">
          <mxGeometry relative="1" as="geometry" />
        </mxCell>
        <mxCell id="20jElHbkQg8c8GI86TIi-15" value="Identity and Passport Service" style="rounded=1;whiteSpace=wrap;html=1;" parent="1" vertex="1">
          <mxGeometry x="1470" y="910" width="120" height="60" as="geometry" />
        </mxCell>
        <mxCell id="20jElHbkQg8c8GI86TIi-16" style="edgeStyle=orthogonalEdgeStyle;rounded=0;orthogonalLoop=1;jettySize=auto;html=1;entryX=0.5;entryY=0;entryDx=0;entryDy=0;" parent="1" source="20jElHbkQg8c8GI86TIi-18" target="20jElHbkQg8c8GI86TIi-15" edge="1">
          <mxGeometry relative="1" as="geometry" />
        </mxCell>
        <mxCell id="20jElHbkQg8c8GI86TIi-17" value="Request all Pictures" style="edgeLabel;html=1;align=center;verticalAlign=middle;resizable=0;points=[];" parent="20jElHbkQg8c8GI86TIi-16" vertex="1" connectable="0">
          <mxGeometry x="0.0111" y="1" relative="1" as="geometry">
            <mxPoint as="offset" />
          </mxGeometry>
        </mxCell>
        <mxCell id="20jElHbkQg8c8GI86TIi-18" value="Diamond" style="rounded=1;whiteSpace=wrap;html=1;" parent="1" vertex="1">
          <mxGeometry x="1470" y="760" width="120" height="60" as="geometry" />
        </mxCell>
        <mxCell id="20jElHbkQg8c8GI86TIi-19" style="edgeStyle=orthogonalEdgeStyle;rounded=0;orthogonalLoop=1;jettySize=auto;html=1;entryX=0;entryY=0.5;entryDx=0;entryDy=0;" parent="1" source="20jElHbkQg8c8GI86TIi-23" target="20jElHbkQg8c8GI86TIi-24" edge="1">
          <mxGeometry relative="1" as="geometry">
            <mxPoint x="1720" y="1090" as="targetPoint" />
          </mxGeometry>
        </mxCell>
        <mxCell id="20jElHbkQg8c8GI86TIi-20" value="Match" style="edgeLabel;html=1;align=center;verticalAlign=middle;resizable=0;points=[];" parent="20jElHbkQg8c8GI86TIi-19" vertex="1" connectable="0">
          <mxGeometry x="-0.1307" y="-1" relative="1" as="geometry">
            <mxPoint as="offset" />
          </mxGeometry>
        </mxCell>
        <mxCell id="20jElHbkQg8c8GI86TIi-21" value="" style="edgeStyle=orthogonalEdgeStyle;rounded=0;orthogonalLoop=1;jettySize=auto;html=1;entryX=0.5;entryY=0;entryDx=0;entryDy=0;" parent="1" source="20jElHbkQg8c8GI86TIi-23" target="20jElHbkQg8c8GI86TIi-26" edge="1">
          <mxGeometry relative="1" as="geometry" />
        </mxCell>
        <mxCell id="20jElHbkQg8c8GI86TIi-22" value="No Match" style="edgeLabel;html=1;align=center;verticalAlign=middle;resizable=0;points=[];" parent="20jElHbkQg8c8GI86TIi-21" vertex="1" connectable="0">
          <mxGeometry x="-0.0889" y="3" relative="1" as="geometry">
            <mxPoint as="offset" />
          </mxGeometry>
        </mxCell>
        <mxCell id="20jElHbkQg8c8GI86TIi-23" value="" style="rhombus;whiteSpace=wrap;html=1;rounded=1;" parent="1" vertex="1">
          <mxGeometry x="1490" y="1050" width="80" height="80" as="geometry" />
        </mxCell>
        <mxCell id="20jElHbkQg8c8GI86TIi-24" value="Done" style="rounded=1;whiteSpace=wrap;html=1;fillColor=#dae8fc;strokeColor=#6c8ebf;" parent="1" vertex="1">
          <mxGeometry x="1700" y="1060" width="120" height="60" as="geometry" />
        </mxCell>
        <mxCell id="20jElHbkQg8c8GI86TIi-25" style="edgeStyle=orthogonalEdgeStyle;rounded=0;orthogonalLoop=1;jettySize=auto;html=1;entryX=0.5;entryY=0;entryDx=0;entryDy=0;" parent="1" source="20jElHbkQg8c8GI86TIi-26" target="20jElHbkQg8c8GI86TIi-28" edge="1">
          <mxGeometry relative="1" as="geometry" />
        </mxCell>
        <mxCell id="20jElHbkQg8c8GI86TIi-26" value="Diamond" style="rounded=1;whiteSpace=wrap;html=1;" parent="1" vertex="1">
          <mxGeometry x="1470" y="1210" width="120" height="60" as="geometry" />
        </mxCell>
        <mxCell id="20jElHbkQg8c8GI86TIi-27" style="edgeStyle=orthogonalEdgeStyle;rounded=0;orthogonalLoop=1;jettySize=auto;html=1;entryX=0.5;entryY=0;entryDx=0;entryDy=0;" parent="1" source="20jElHbkQg8c8GI86TIi-28" target="20jElHbkQg8c8GI86TIi-33" edge="1">
          <mxGeometry relative="1" as="geometry" />
        </mxCell>
        <mxCell id="20jElHbkQg8c8GI86TIi-28" value="Home Office" style="rounded=1;whiteSpace=wrap;html=1;" parent="1" vertex="1">
          <mxGeometry x="1470" y="1350" width="120" height="60" as="geometry" />
        </mxCell>
        <mxCell id="20jElHbkQg8c8GI86TIi-29" style="edgeStyle=orthogonalEdgeStyle;rounded=0;orthogonalLoop=1;jettySize=auto;html=1;entryX=0;entryY=0.5;entryDx=0;entryDy=0;" parent="1" source="20jElHbkQg8c8GI86TIi-33" target="20jElHbkQg8c8GI86TIi-34" edge="1">
          <mxGeometry relative="1" as="geometry">
            <mxPoint x="1720" y="1510" as="targetPoint" />
          </mxGeometry>
        </mxCell>
        <mxCell id="20jElHbkQg8c8GI86TIi-30" value="Match" style="edgeLabel;html=1;align=center;verticalAlign=middle;resizable=0;points=[];" parent="20jElHbkQg8c8GI86TIi-29" vertex="1" connectable="0">
          <mxGeometry x="-0.1307" y="-1" relative="1" as="geometry">
            <mxPoint as="offset" />
          </mxGeometry>
        </mxCell>
        <mxCell id="20jElHbkQg8c8GI86TIi-31" value="" style="edgeStyle=orthogonalEdgeStyle;rounded=0;orthogonalLoop=1;jettySize=auto;html=1;entryX=0.5;entryY=0;entryDx=0;entryDy=0;" parent="1" source="20jElHbkQg8c8GI86TIi-33" target="20jElHbkQg8c8GI86TIi-36" edge="1">
          <mxGeometry relative="1" as="geometry">
            <mxPoint x="1530" y="1630" as="targetPoint" />
          </mxGeometry>
        </mxCell>
        <mxCell id="20jElHbkQg8c8GI86TIi-32" value="No Match" style="edgeLabel;html=1;align=center;verticalAlign=middle;resizable=0;points=[];" parent="20jElHbkQg8c8GI86TIi-31" vertex="1" connectable="0">
          <mxGeometry x="-0.0889" y="3" relative="1" as="geometry">
            <mxPoint as="offset" />
          </mxGeometry>
        </mxCell>
        <mxCell id="20jElHbkQg8c8GI86TIi-33" value="" style="rhombus;whiteSpace=wrap;html=1;rounded=1;" parent="1" vertex="1">
          <mxGeometry x="1490" y="1470" width="80" height="80" as="geometry" />
        </mxCell>
        <mxCell id="20jElHbkQg8c8GI86TIi-34" value="Done" style="rounded=1;whiteSpace=wrap;html=1;fillColor=#dae8fc;strokeColor=#6c8ebf;" parent="1" vertex="1">
          <mxGeometry x="1700" y="1480" width="120" height="60" as="geometry" />
        </mxCell>
        <mxCell id="20jElHbkQg8c8GI86TIi-35" style="edgeStyle=orthogonalEdgeStyle;rounded=0;orthogonalLoop=1;jettySize=auto;html=1;entryX=0.5;entryY=0;entryDx=0;entryDy=0;" parent="1" source="20jElHbkQg8c8GI86TIi-36" target="20jElHbkQg8c8GI86TIi-38" edge="1">
          <mxGeometry relative="1" as="geometry" />
        </mxCell>
        <mxCell id="20jElHbkQg8c8GI86TIi-36" value="Diamond" style="rounded=1;whiteSpace=wrap;html=1;" parent="1" vertex="1">
          <mxGeometry x="1470" y="1620" width="120" height="60" as="geometry" />
        </mxCell>
        <mxCell id="20jElHbkQg8c8GI86TIi-37" style="edgeStyle=orthogonalEdgeStyle;rounded=0;orthogonalLoop=1;jettySize=auto;html=1;entryX=0.5;entryY=0;entryDx=0;entryDy=0;" parent="1" source="20jElHbkQg8c8GI86TIi-38" target="20jElHbkQg8c8GI86TIi-43" edge="1">
          <mxGeometry relative="1" as="geometry" />
        </mxCell>
        <mxCell id="20jElHbkQg8c8GI86TIi-38" value="DMNLBIT" style="rounded=1;whiteSpace=wrap;html=1;" parent="1" vertex="1">
          <mxGeometry x="1470" y="1760" width="120" height="60" as="geometry" />
        </mxCell>
        <mxCell id="20jElHbkQg8c8GI86TIi-39" style="edgeStyle=orthogonalEdgeStyle;rounded=0;orthogonalLoop=1;jettySize=auto;html=1;entryX=0;entryY=0.5;entryDx=0;entryDy=0;" parent="1" source="20jElHbkQg8c8GI86TIi-43" target="20jElHbkQg8c8GI86TIi-44" edge="1">
          <mxGeometry relative="1" as="geometry">
            <mxPoint x="1720" y="1920" as="targetPoint" />
          </mxGeometry>
        </mxCell>
        <mxCell id="20jElHbkQg8c8GI86TIi-40" value="Match" style="edgeLabel;html=1;align=center;verticalAlign=middle;resizable=0;points=[];" parent="20jElHbkQg8c8GI86TIi-39" vertex="1" connectable="0">
          <mxGeometry x="-0.1307" y="-1" relative="1" as="geometry">
            <mxPoint as="offset" />
          </mxGeometry>
        </mxCell>
        <mxCell id="20jElHbkQg8c8GI86TIi-41" value="" style="edgeStyle=orthogonalEdgeStyle;rounded=0;orthogonalLoop=1;jettySize=auto;html=1;entryX=0.5;entryY=0;entryDx=0;entryDy=0;" parent="1" source="20jElHbkQg8c8GI86TIi-43" target="20jElHbkQg8c8GI86TIi-46" edge="1">
          <mxGeometry relative="1" as="geometry">
            <mxPoint x="1530" y="2040" as="targetPoint" />
          </mxGeometry>
        </mxCell>
        <mxCell id="20jElHbkQg8c8GI86TIi-42" value="No Match" style="edgeLabel;html=1;align=center;verticalAlign=middle;resizable=0;points=[];" parent="20jElHbkQg8c8GI86TIi-41" vertex="1" connectable="0">
          <mxGeometry x="-0.0889" y="3" relative="1" as="geometry">
            <mxPoint as="offset" />
          </mxGeometry>
        </mxCell>
        <mxCell id="20jElHbkQg8c8GI86TIi-43" value="" style="rhombus;whiteSpace=wrap;html=1;rounded=1;" parent="1" vertex="1">
          <mxGeometry x="1490" y="1880" width="80" height="80" as="geometry" />
        </mxCell>
        <mxCell id="20jElHbkQg8c8GI86TIi-44" value="Done" style="rounded=1;whiteSpace=wrap;html=1;fillColor=#dae8fc;strokeColor=#6c8ebf;" parent="1" vertex="1">
          <mxGeometry x="1700" y="1890" width="120" height="60" as="geometry" />
        </mxCell>
        <mxCell id="20jElHbkQg8c8GI86TIi-45" value="" style="edgeStyle=orthogonalEdgeStyle;rounded=0;orthogonalLoop=1;jettySize=auto;html=1;" parent="1" source="20jElHbkQg8c8GI86TIi-46" target="20jElHbkQg8c8GI86TIi-48" edge="1">
          <mxGeometry relative="1" as="geometry" />
        </mxCell>
        <mxCell id="20jElHbkQg8c8GI86TIi-46" value="Send report to local authority" style="rounded=1;whiteSpace=wrap;html=1;" parent="1" vertex="1">
          <mxGeometry x="1470" y="2060" width="120" height="60" as="geometry" />
        </mxCell>
        <mxCell id="20jElHbkQg8c8GI86TIi-47" value="" style="edgeStyle=orthogonalEdgeStyle;rounded=0;orthogonalLoop=1;jettySize=auto;html=1;" parent="1" source="20jElHbkQg8c8GI86TIi-48" target="20jElHbkQg8c8GI86TIi-49" edge="1">
          <mxGeometry relative="1" as="geometry" />
        </mxCell>
        <mxCell id="20jElHbkQg8c8GI86TIi-48" value="ANPR System" style="rounded=1;whiteSpace=wrap;html=1;" parent="1" vertex="1">
          <mxGeometry x="1470" y="2180" width="120" height="60" as="geometry" />
        </mxCell>
        <mxCell id="20jElHbkQg8c8GI86TIi-49" value="Find Car" style="rounded=1;whiteSpace=wrap;html=1;" parent="1" vertex="1">
          <mxGeometry x="1470" y="2310" width="120" height="60" as="geometry" />
        </mxCell>
        <mxCell id="VzHSFZfsUgJm2BK-wIog-4" style="edgeStyle=orthogonalEdgeStyle;rounded=0;orthogonalLoop=1;jettySize=auto;html=1;" edge="1" parent="1" source="BSd8035IVTsq0BhdVK2I-1" target="VzHSFZfsUgJm2BK-wIog-3">
          <mxGeometry relative="1" as="geometry" />
        </mxCell>
        <mxCell id="BSd8035IVTsq0BhdVK2I-1" value="DVLA" style="rounded=1;whiteSpace=wrap;html=1;" vertex="1" parent="1">
          <mxGeometry x="1270" y="340" width="120" height="60" as="geometry" />
        </mxCell>
        <mxCell id="VzHSFZfsUgJm2BK-wIog-3" value="Diamond" style="rounded=1;whiteSpace=wrap;html=1;" vertex="1" parent="1">
          <mxGeometry x="1270" y="470" width="120" height="60" as="geometry" />
        </mxCell>
        <mxCell id="VzHSFZfsUgJm2BK-wIog-5" value="" style="edgeStyle=orthogonalEdgeStyle;rounded=0;orthogonalLoop=1;jettySize=auto;html=1;entryX=0.5;entryY=0;entryDx=0;entryDy=0;exitX=0.5;exitY=1;exitDx=0;exitDy=0;" edge="1" parent="1" target="VzHSFZfsUgJm2BK-wIog-10" source="VzHSFZfsUgJm2BK-wIog-3">
          <mxGeometry relative="1" as="geometry">
            <mxPoint x="1116" y="540" as="sourcePoint" />
          </mxGeometry>
        </mxCell>
        <mxCell id="VzHSFZfsUgJm2BK-wIog-6" style="edgeStyle=orthogonalEdgeStyle;rounded=0;orthogonalLoop=1;jettySize=auto;html=1;entryX=1;entryY=0.5;entryDx=0;entryDy=0;" edge="1" parent="1" source="VzHSFZfsUgJm2BK-wIog-10" target="VzHSFZfsUgJm2BK-wIog-11">
          <mxGeometry relative="1" as="geometry">
            <mxPoint x="1306" y="650" as="targetPoint" />
          </mxGeometry>
        </mxCell>
        <mxCell id="VzHSFZfsUgJm2BK-wIog-7" value="Match" style="edgeLabel;html=1;align=center;verticalAlign=middle;resizable=0;points=[];" vertex="1" connectable="0" parent="VzHSFZfsUgJm2BK-wIog-6">
          <mxGeometry x="-0.1307" y="-1" relative="1" as="geometry">
            <mxPoint as="offset" />
          </mxGeometry>
        </mxCell>
        <mxCell id="VzHSFZfsUgJm2BK-wIog-8" value="" style="edgeStyle=orthogonalEdgeStyle;rounded=0;orthogonalLoop=1;jettySize=auto;html=1;entryX=0;entryY=0.5;entryDx=0;entryDy=0;exitX=0.5;exitY=1;exitDx=0;exitDy=0;" edge="1" parent="1" source="VzHSFZfsUgJm2BK-wIog-10" target="20jElHbkQg8c8GI86TIi-7">
          <mxGeometry relative="1" as="geometry">
            <mxPoint x="1116" y="770" as="targetPoint" />
          </mxGeometry>
        </mxCell>
        <mxCell id="VzHSFZfsUgJm2BK-wIog-9" value="No Match" style="edgeLabel;html=1;align=center;verticalAlign=middle;resizable=0;points=[];" vertex="1" connectable="0" parent="VzHSFZfsUgJm2BK-wIog-8">
          <mxGeometry x="-0.0889" y="3" relative="1" as="geometry">
            <mxPoint as="offset" />
          </mxGeometry>
        </mxCell>
        <mxCell id="VzHSFZfsUgJm2BK-wIog-10" value="" style="rhombus;whiteSpace=wrap;html=1;rounded=1;" vertex="1" parent="1">
          <mxGeometry x="1290" y="600" width="80" height="80" as="geometry" />
        </mxCell>
        <mxCell id="VzHSFZfsUgJm2BK-wIog-11" value="Done" style="rounded=1;whiteSpace=wrap;html=1;fillColor=#dae8fc;strokeColor=#6c8ebf;" vertex="1" parent="1">
          <mxGeometry x="1040" y="610" width="120" height="60" as="geometry" />
        </mxCell>
      </root>
    </mxGraphModel>
  </diagram>
</mxfile>
